# xmcd CD database file
#
# Track frame offsets:
#	150
#	17399
#	34320
#	50723
#	65167
#	85875
#	101659
#	120890
#	140321
#	158276
#	174555
#	190483
#	204037
#	221278
#	237921
#	256882
#	273071
#	286742
#	305171
#	319458
#
# Disc length: 4433 seconds
#
# Revision: 0
# Processed by: cddbd v1.5.2PL0 Copyright (c) Steve Scherf et al.
# Submitted via: CDex 1.70beta2
#
DISCID=12114f14
DTITLE=Various Artist - Czułe Granie RADIO ZET
DYEAR=2005
DGENRE=Rhythmic Soul
TTITLE0=URSZULA - Dzis juz wiem
TTITLE1=O.SZAMANSKA and P.BRANNY - Niech wsz mowia, ze to nie jest milosc
TTITLE2=KRZYSZTOF KILJANSKI and KAYAH - Prócz Ciebie Nic
TTITLE3=Krzysztof Krawczyk - Bo Jesteś Ty
TTITLE4=Ryszard Rynkowski - Intymnie
TTITLE5=BRODKA - Miałeś byc
TTITLE6=IVAN and DELFIN - Jej Czarne Oczy
TTITLE7=Andrzej Piaseczny - Jednym Tchem
TTITLE8=AIDA - Spraw Mój Boze
TTITLE9=Kasia Kowalska - To Co Dobre
TTITLE10=Mezo, Tabb ft. Kasia Wilk - Wazne
TTITLE11=ANIA - Tego Chciałam
TTITLE12=Ex-Dance - Gdy Tobie Kłamałam
TTITLE13=Rezerwat vs. Verba - Zaopiekuj Się Mna
TTITLE14=Ewelina Flinta - Nieskoczona Historia
TTITLE15=Ewa Bem - Cały Ten Świat
TTITLE16=Janusz Radek - Moja Madonna (Serwus Madonna)
TTITLE17=Raz Dwa Trzy - Trudno Nie Wierzyc w Nic
TTITLE18=Joanna Dark - Nigdy Nie Wiadomo
TTITLE19=Wojciech Gasowski - M Jak Milosc
EXTD=YEAR: 2005
EXTT0=
EXTT1=
EXTT2=
EXTT3=
EXTT4=
EXTT5=
EXTT6=
EXTT7=
EXTT8=
EXTT9=
EXTT10=
EXTT11=
EXTT12=
EXTT13=
EXTT14=
EXTT15=
EXTT16=
EXTT17=
EXTT18=
EXTT19=
PLAYORDER=
